<svg width="106" height="106" viewBox="0 0 106 106" fill="none" xmlns="http://www.w3.org/2000/svg">
<path d="M94 0H12C5.37258 0 0 5.37258 0 12V94C0 100.627 5.37258 106 12 106H94C100.627 106 106 100.627 106 94V12C106 5.37258 100.627 0 94 0Z" fill="white"/>
<mask id="mask0_0_1" style="mask-type:luminance" maskUnits="userSpaceOnUse" x="19" y="16" width="68" height="70">
<path d="M74.2964 16.1384H31.8062C25.1788 16.1384 19.8062 21.511 19.8062 28.1384V73.2548C19.8062 79.8822 25.1788 85.2548 31.8062 85.2548H74.2964C80.9238 85.2548 86.2964 79.8822 86.2964 73.2548V28.1384C86.2964 21.511 80.9238 16.1384 74.2964 16.1384Z" fill="white"/>
</mask>
<g mask="url(#mask0_0_1)">
<path d="M81.8143 68.0674C77.7283 66.5159 73.7891 65.0635 69.9012 63.4936C69.329 63.2626 68.8229 62.551 68.5478 61.9421C63.7356 51.3348 58.9601 40.7091 54.1772 30.0871C53.9388 29.559 53.6638 29.0491 53.2236 28.1579C51.4337 32.1008 49.7942 35.6769 48.1804 39.2677C44.8353 46.728 41.4939 54.1884 38.1819 61.6634C37.6794 62.7967 36.9788 63.3983 35.7465 63.8274C32.0786 65.0965 28.4988 66.6223 24.6953 68.1188C26.1881 64.7517 27.6442 61.436 29.126 58.1313C35.1449 44.7217 41.2005 31.3269 47.1717 17.8916C47.7659 16.5529 48.4738 16.0687 49.9116 16.1457C52.226 16.2668 54.555 16.2484 56.8731 16.1567C58.0945 16.1091 58.696 16.5162 59.2022 17.6532C65.4044 31.5836 71.6618 45.492 77.908 59.4003C79.2028 62.2833 80.5049 65.1662 81.8143 68.0711V68.0674Z" fill="black"/>
<path d="M19.8062 79.0525C38.2516 63.2956 67.6492 62.9288 86.2964 78.6931C84.103 80.9158 81.906 83.1458 79.8264 85.2548C76.6317 83.5456 73.5397 81.521 70.1763 80.1529C55.5747 74.2037 41.6223 75.7222 28.5136 84.4369C27.0024 85.4419 26.2248 85.3869 25.0548 84.1031C23.4593 82.3499 21.6401 80.7984 19.8062 79.0562V79.0525Z" fill="black"/>
</g>
</svg>
